<?xml version="1.0" encoding="UTF-8"?>
<!-- Generated by Pixelmator Pro 3.6.18 -->
<svg width="569" height="569" viewBox="0 0 569 569" xmlns="http://www.w3.org/2000/svg">
    <g id="Relay-Logox">
        <path id="Path" fill="#000000" stroke="none" d="M 327.202911 6.75061 C 328.091156 6.894409 328.979401 7.038269 329.894592 7.186401 C 362.507721 12.521484 393.838043 23.603088 422.607239 39.831299 C 423.388092 40.270508 424.169006 40.709717 424.973541 41.16217 C 433.288025 45.949829 433.288025 45.949829 435.309784 49.993347 C 435.796021 52.971436 435.850647 55.12561 434.292908 57.780457 C 432.683746 59.865845 430.989624 61.847809 429.255798 63.831055 C 428.505127 64.716919 427.756378 65.60437 427.009216 66.493195 C 425.387177 68.420959 423.758179 70.342499 422.124115 72.26001 C 420.017639 74.739075 417.954529 77.250671 415.904602 79.776825 C 412.482422 83.982605 408.962524 88.096313 405.423737 92.203613 C 402.785522 95.271851 400.18869 98.36731 397.634552 101.506317 C 396.355591 103.074127 395.076324 104.641663 393.796753 106.208954 C 393.209137 106.931183 393.209137 106.931183 392.60968 107.667969 C 391.354401 109.205292 390.090057 110.73468 388.823822 112.262939 C 388.43634 112.740723 388.048859 113.218475 387.649628 113.710785 C 384.319733 117.703827 381.190674 120.218842 375.959106 120.857452 C 370.01825 121.257568 365.452789 119.071777 360.106232 116.702942 C 314.281311 96.44635 263.347229 94.548035 216.288818 112.179749 C 170.169449 130.061981 132.729294 165.419525 112.535553 210.607269 C 92.652489 256.850342 91.792221 308.803741 110.114548 355.730652 C 115.757629 369.61084 123.041557 382.215698 131.450027 394.585785 C 131.917709 395.276428 132.385391 395.967072 132.867249 396.67865 C 133.293961 397.302704 133.720657 397.926758 134.160309 398.569702 C 135.767807 401.170013 136.239243 403.474243 136.340179 406.47583 C 136.372513 407.094604 136.404846 407.713318 136.438156 408.35083 C 135.464157 414.400299 131.690048 419.020691 127.691628 423.448639 C 126.759445 424.507507 125.828156 425.5672 124.897743 426.627655 C 124.442459 427.143402 123.987183 427.65918 123.518112 428.190552 C 121.741623 430.227234 120.03878 432.319458 118.340385 434.421478 C 114.938225 438.612549 111.434959 442.707642 107.911446 446.796326 C 105.290092 449.844604 102.712524 452.921173 100.178429 456.042847 C 97.111313 459.816467 93.986641 463.535645 90.827179 467.231934 C 90.391266 467.743652 89.955353 468.255341 89.506248 468.782593 C 83.189674 476.146301 83.189674 476.146301 79.908386 477.123718 C 76.083946 477.279785 73.859726 476.336853 71.016594 473.769012 C 61.14859 462.701294 52.330067 450.834473 44.395267 438.313324 C 43.921589 437.56958 43.921589 437.56958 43.438354 436.810791 C 16.37191 393.965698 1.341435 343.696106 0.287657 293.01767 C 0.253108 291.902802 0.218533 290.787964 0.182929 289.639313 C -0.860688 227.268463 19.383568 161.757477 59.097805 113.127808 C 59.753338 112.307281 60.408867 111.486725 61.08427 110.641327 C 64.861198 105.952728 68.784355 101.427551 72.840897 96.97934 C 74.454819 95.198059 76.023636 93.388428 77.584084 91.560486 C 83.599297 84.666016 90.22644 78.44223 97.151428 72.479614 C 97.687325 72.015198 98.223213 71.550781 98.77536 71.072327 C 113.207497 58.648834 128.924728 47.96344 145.583313 38.750244 C 146.230347 38.390564 146.87738 38.030884 147.544022 37.660339 C 157.572937 32.125427 167.792358 27.378601 178.447815 23.182861 C 179.098053 22.92334 179.748291 22.66394 180.418228 22.396545 C 199.335541 14.903198 218.935638 10.049805 238.987671 6.75061 C 239.806137 6.607788 240.624557 6.464966 241.467804 6.317749 C 268.933868 1.673645 299.782257 1.985046 327.202911 6.75061 Z"/>
        <path id="path1" fill="#000000" stroke="none" d="M 491.52536 95.830688 C 496.461334 99.410461 499.91806 104.031677 503.633331 108.803528 C 504.346954 109.714508 504.346954 109.714508 505.075043 110.64386 C 541.204712 157.000732 564.725891 215.764984 565.244141 275.024628 C 565.252563 275.836151 565.261108 276.647644 565.269775 277.483765 C 565.860657 348.913544 544.330383 416.916077 496.714508 471.177826 C 496.187164 471.790985 495.659821 472.404175 495.116547 473.035919 C 493.647278 474.737915 492.158752 476.420105 490.660522 478.09668 C 489.921356 478.926117 489.18222 479.755554 488.420685 480.610168 C 484.503113 484.969177 480.569244 489.190186 476.066101 492.957977 C 473.812256 494.884521 471.681366 496.925629 469.525635 498.961304 C 423.879852 541.243469 357.077393 567.937134 294.929626 568.217285 C 294.024689 568.223389 293.119751 568.229492 292.187408 568.235718 C 254.51886 568.432251 254.51886 568.432251 238.122818 565.447021 C 237.147186 565.275208 236.171539 565.103394 235.166351 564.926331 C 200.777405 558.728271 160.747849 547.50946 132.610489 525.663696 C 130.769638 522.902405 130.153885 520.960022 130.218628 517.63678 C 131.599106 512.734741 135.735504 509.076294 139.137451 505.417725 C 140.924591 503.461853 142.575806 501.40686 144.231979 499.339661 C 147.654724 495.133179 151.174973 491.018616 154.714767 486.91095 C 157.336227 483.862671 159.913849 480.786011 162.447998 477.664246 C 166.31485 472.90448 170.290146 468.244507 174.305969 463.610352 C 175.736038 461.957397 177.119812 460.294739 178.481598 458.583374 C 181.735367 454.542175 184.504227 452.207489 189.690933 451.286163 C 195.959305 451.236969 200.809998 452.948181 206.339386 455.718536 C 249.476791 476.092163 300.847473 477.391571 345.59903 461.555481 C 368.974182 452.917603 390.039459 440.488708 408.377655 423.570251 C 409.87735 422.201904 411.393951 420.92157 412.985718 419.664886 C 416.160736 416.913239 418.763214 413.84082 421.472107 410.63797 C 422.186737 409.826355 422.901367 409.014771 423.637634 408.178528 C 448.531677 379.731445 464.145599 343.560181 468.174286 305.990479 C 468.270142 305.114227 468.366058 304.237915 468.464813 303.335114 C 472.56485 259.121063 460.311188 213.098785 434.106689 177.209015 C 431.17627 173.191956 429.986542 170.560059 429.904449 165.613708 C 429.882141 164.814362 429.859833 164.015015 429.836884 163.191437 C 430.449585 157.801025 433.671875 154.097687 437.147614 150.154419 C 438.007538 149.159515 438.86673 148.164032 439.725281 147.167969 C 440.150452 146.676849 440.575623 146.18576 441.013702 145.67981 C 442.736176 143.670532 444.401733 141.617188 446.066437 139.559937 C 449.489166 135.353455 453.00943 131.238892 456.549194 127.131226 C 459.808289 123.341461 462.98056 119.488647 466.130402 115.607513 C 469.020569 112.101044 471.983734 108.658936 474.95462 105.220795 C 476.840088 103.03537 478.684662 100.850494 480.461304 98.573914 C 483.61969 94.748108 486.912292 94.485229 491.52536 95.830688 Z"/>
    </g>
</svg>
