<?xml version="1.0" encoding="UTF-8"?>
<!-- Generated by Pixelmator Pro 3.6.18 -->
<svg width="750" height="750" viewBox="0 0 750 750" xmlns="http://www.w3.org/2000/svg">
    <g id="g82033">
        <clipPath id="clipPath1">
            <path d="M -163.640299 131.462846 L 929.681234 131.462846 L 929.681234 1116.990861 L -163.640299 1116.990861 Z"/>
        </clipPath>
        <g id="g82035" clip-path="url(#clipPath1)">
            <path id="path82043" fill="#000000" stroke="none" d="M 476.322876 528.098389 L 476.164856 527.891418 C 486.424988 512.865479 500.563232 493.609497 505.620422 490.047974 C 505.972961 489.889954 506.252563 489.76825 506.641541 489.585754 C 521.922546 488.698303 530.517273 483.301147 532.766235 481.647278 C 535.671692 479.556335 544.108398 471.25354 545.506409 469.733948 C 546.96521 468.17804 551.341614 458.124146 553.140869 453.894104 L 553.140869 453.88147 L 552.934082 454.246521 L 553.63916 452.568909 L 553.760742 452.131165 L 554.927795 448.484314 C 554.879211 447.377991 554.295654 446.405273 553.335327 445.882874 C 552.654541 445.505981 551.815735 445.517822 550.903931 445.603149 C 550.952637 445.505981 550.964783 445.384277 550.964783 445.384277 C 551.511841 444.229004 552.107422 442.697571 552.107422 441.6521 C 552.107422 441.554932 552.095276 441.482178 552.095276 441.384277 C 551.937256 440.217834 551.305176 439.281494 550.320496 438.710144 C 549.299316 438.138794 547.962097 438.175171 546.551819 438.491272 C 545.858948 437.579346 545.117371 437.008057 544.922913 436.935303 C 544.618958 436.728333 542.941345 436.108765 539.853577 438.017151 C 538.650085 438.734619 537.446594 440.04718 536.461853 441.275208 C 536.583374 440.326904 536.69281 439.366821 536.69281 439.366821 C 536.425415 438.308716 535.671692 437.470276 534.626221 437.068848 C 533.155212 436.522034 531.295288 436.886353 529.508301 438.078003 C 527.551025 439.415039 524.913025 443.596863 524.159302 444.837463 C 523.515015 445.371704 520.925659 447.645142 519.381775 450.380798 C 514.37323 451.984985 511.273315 451.900391 509.972534 451.389893 C 513.011658 449.626953 515.41864 447.936707 516.719482 446.380798 C 519.697754 442.770264 521.351074 438.965393 521.351074 435.877991 C 521.351074 435.354919 521.314636 434.844421 521.2052 434.358398 C 520.913513 432.91156 520.159729 431.817139 519.065674 431.258423 C 516.062988 429.738831 512.501099 432.814331 511.808167 433.446533 C 511.747314 433.531128 510.762695 434.576538 510.215576 435.184998 C 509.097229 435.452087 506.714539 436.169617 505.146301 437.579346 C 504.052246 438.552124 502.739258 439.00177 501.20752 439.524841 C 499.359741 440.144409 497.280945 440.886353 495.238647 442.636719 L 495.068481 442.745789 C 495.117065 442.709412 495.177795 442.685669 495.214233 442.648621 C 494.837402 442.916443 491.567322 445.129028 490.546143 445.845825 C 485.8172 448.338135 483.312927 450.854919 480.638428 453.529053 C 475.32605 458.877991 468.67627 465.491333 438.892517 475.484314 C 438.637146 464.43396 431.926758 434.771667 430.565247 423.417114 C 427.805603 403.358337 404.865967 375.75061 388.345032 358.305847 C 403.917786 367.447815 412.634094 368.736633 421.204529 356.9198 C 423.465637 353.333801 427.027649 357.199524 430.261292 356.567322 C 434.978088 354.087646 434.358032 352.762451 434.358032 349.298157 C 435.73175 345.602295 439.45166 347.426086 442.18689 346.988342 C 449.128357 345.821228 445.007263 338.4422 447.718201 334.746338 C 478.195007 332.898804 443.828064 304.524597 464.360718 292.744873 C 477.696594 286.447693 482.741638 278.035767 488.698364 269.902893 C 493.621765 263.17981 494.630798 268.43158 498.31427 262.912659 C 504.951782 238.73291 493.475891 208.876221 478.705566 188.355957 C 403.054688 89.813843 316.657257 135.243225 291.468689 196.269958 C 281.050385 211.78186 284.271912 234.320313 283.700592 252.871399 C 281.731171 259.314087 277.91394 259.132263 272.407043 255.339233 C 271.166992 268.103577 281.026093 270.644165 285.414642 271.495178 C 285.864471 273.136475 288.745605 275.628784 289.949097 277.330139 C 286.02243 278.485413 277.768127 276.1875 275.081512 274.704285 C 274.972076 277.598022 275.324615 279.992432 277.610107 282.642761 C 279.433533 291.748413 284.004425 294.970093 290.520416 297.656067 C 302.652802 302.652588 296.96344 319.501526 295.541168 326.430969 C 295.091339 327.9505 294.64151 329.482727 294.240356 330.953308 C 283.00766 333.858948 275.543396 344.143555 272.552917 354.817017 C 271.17923 380.686279 258.01358 402.154846 258.244507 428.924133 C 258.244507 428.924133 258.01358 432.850708 258.244507 434.455627 C 264.784821 463.424866 256.433136 501.378113 257.806824 531.234802 C 162.413513 545.640381 74.678894 576.700562 -0.157486 620.391541 C 110.808533 575.180969 240.289154 549.129211 378.668396 549.129211 C 517.047668 549.129211 646.503906 575.180969 757.482117 620.391541 C 676.616028 573.174683 580.687805 540.716614 476.322876 528.098389 Z M 393.341492 438.138794 C 392.794434 439.694763 391.250549 439.816467 391.250549 439.816467 C 364.372131 440.703857 341.371704 451.657043 322.8815 472.408081 C 322.8815 472.408081 320.81488 474.438904 315.587524 470.293396 C 311.587952 467.132568 313.071075 463.801819 313.071075 463.801819 C 320.182709 445.651428 338.527039 433.689148 367.55719 428.242981 L 368.395996 428.122009 C 374.340637 427.282837 388.16272 425.361877 392.855225 434.771667 C 392.855225 434.771667 393.888489 436.570251 393.341492 438.138794"/>
        </g>
    </g>
</svg>
